solid OpenSCAD_Model
  facet normal -1 0 0
    outer loop
      vertex 0 3 0
      vertex 0 106.5 2
      vertex 0 106.5 0
    endloop
  endfacet
  facet normal -1 -0 0
    outer loop
      vertex 0 106.5 2
      vertex 0 3 0
      vertex 0 3 2
    endloop
  endfacet
  facet normal 0 0 1
    outer loop
      vertex 3.03271 1.45265 2
      vertex 2.07295 0.14683 2
      vertex 3 0.14683 2
    endloop
  endfacet
  facet normal 0 0 1
    outer loop
      vertex 0.572948 1.23664 2
      vertex 3.03271 1.45265 2
      vertex 1.60796 2.58884 2
    endloop
  endfacet
  facet normal 0 0 1
    outer loop
      vertex 3.03271 1.45265 2
      vertex 0.572948 1.23664 2
      vertex 2.07295 0.14683 2
    endloop
  endfacet
  facet normal -0 0 1
    outer loop
      vertex 3.03271 50.9527 2
      vertex 6 6 2
      vertex 4.80933 51.3582 2
    endloop
  endfacet
  facet normal 0 0 1
    outer loop
      vertex 6 6 2
      vertex 4.80933 5.14185 2
      vertex 5.6 3.5 2
    endloop
  endfacet
  facet normal 0 0 1
    outer loop
      vertex 3.03271 5.54735 2
      vertex 6 6 2
      vertex 3.03271 50.9527 2
    endloop
  endfacet
  facet normal 0 0 1
    outer loop
      vertex 6 6 2
      vertex 3.03271 5.54735 2
      vertex 4.80933 5.14185 2
    endloop
  endfacet
  facet normal 0 0 1
    outer loop
      vertex 1.60796 52.0888 2
      vertex 3.03271 5.54735 2
      vertex 3.03271 50.9527 2
    endloop
  endfacet
  facet normal 0 0 1
    outer loop
      vertex 3.03271 5.54735 2
      vertex 1.60796 52.0888 2
      vertex 1.60796 4.41116 2
    endloop
  endfacet
  facet normal -0 0 1
    outer loop
      vertex 4.80933 101.858 2
      vertex 5.6 53 2
      vertex 5.6 103.5 2
    endloop
  endfacet
  facet normal 0 0 1
    outer loop
      vertex 4.80933 101.858 2
      vertex 4.80933 54.6418 2
      vertex 5.6 53 2
    endloop
  endfacet
  facet normal -0 0 1
    outer loop
      vertex 3.03271 101.453 2
      vertex 4.80933 54.6418 2
      vertex 4.80933 101.858 2
    endloop
  endfacet
  facet normal 0 0 1
    outer loop
      vertex 3.03271 101.453 2
      vertex 3.03271 55.0473 2
      vertex 4.80933 54.6418 2
    endloop
  endfacet
  facet normal 0 0 1
    outer loop
      vertex 1.60796 102.589 2
      vertex 3.03271 55.0473 2
      vertex 3.03271 101.453 2
    endloop
  endfacet
  facet normal 0 0 1
    outer loop
      vertex 3.03271 55.0473 2
      vertex 1.60796 102.589 2
      vertex 1.60796 53.9112 2
    endloop
  endfacet
  facet normal 0 0 1
    outer loop
      vertex 5.6 53 2
      vertex 6 106.5 2
      vertex 5.6 103.5 2
    endloop
  endfacet
  facet normal 0 0 1
    outer loop
      vertex 6 106.5 2
      vertex 4.80933 105.142 2
      vertex 5.6 103.5 2
    endloop
  endfacet
  facet normal 0 0 1
    outer loop
      vertex 6 106.5 2
      vertex 3.03271 105.547 2
      vertex 4.80933 105.142 2
    endloop
  endfacet
  facet normal 0 0 1
    outer loop
      vertex 0 106.5 2
      vertex 1.60796 102.589 2
      vertex 1.60796 104.411 2
    endloop
  endfacet
  facet normal 0 0 1
    outer loop
      vertex 1.60796 102.589 2
      vertex 0 106.5 2
      vertex 1.60796 53.9112 2
    endloop
  endfacet
  facet normal 0 0 1
    outer loop
      vertex 1.60796 53.9112 2
      vertex 0 106.5 2
      vertex 1.60796 52.0888 2
    endloop
  endfacet
  facet normal 0 0 1
    outer loop
      vertex 1.60796 52.0888 2
      vertex 0 3 2
      vertex 1.60796 4.41116 2
    endloop
  endfacet
  facet normal 0 0 1
    outer loop
      vertex 1.60796 4.41116 2
      vertex 0 3 2
      vertex 1.60796 2.58884 2
    endloop
  endfacet
  facet normal -0 0 1
    outer loop
      vertex 0 106.5 2
      vertex 3.03271 105.547 2
      vertex 6 106.5 2
    endloop
  endfacet
  facet normal 0 0 1
    outer loop
      vertex 0 106.5 2
      vertex 1.60796 104.411 2
      vertex 3.03271 105.547 2
    endloop
  endfacet
  facet normal 0 0 1
    outer loop
      vertex 1.60796 52.0888 2
      vertex 0 106.5 2
      vertex 0 3 2
    endloop
  endfacet
  facet normal 0 0 1
    outer loop
      vertex 1.60796 2.58884 2
      vertex 0 3 2
      vertex 0.572948 1.23664 2
    endloop
  endfacet
  facet normal 0 0 1
    outer loop
      vertex 64 6 2
      vertex 63.5898 5.34304 2
      vertex 64 5.24941 2
    endloop
  endfacet
  facet normal 0 0 1
    outer loop
      vertex 64 6 2
      vertex 62.5238 5.58635 2
      vertex 63.5898 5.34304 2
    endloop
  endfacet
  facet normal 0 0 1
    outer loop
      vertex 6 6 2
      vertex 61.669 4.90463 2
      vertex 62.5238 5.58635 2
    endloop
  endfacet
  facet normal 0 0 1
    outer loop
      vertex 61.0719 4.42851 2
      vertex 6 6 2
      vertex 61.0719 2.57149 2
    endloop
  endfacet
  facet normal 0 0 1
    outer loop
      vertex 61.669 4.90463 2
      vertex 6 6 2
      vertex 61.0719 4.42851 2
    endloop
  endfacet
  facet normal -0 0 1
    outer loop
      vertex 6 6 2
      vertex 62.5238 5.58635 2
      vertex 64 6 2
    endloop
  endfacet
  facet normal -0 0 1
    outer loop
      vertex 63.5898 1.65696 2
      vertex 64 0 2
      vertex 64 1.75059 2
    endloop
  endfacet
  facet normal -0 0 1
    outer loop
      vertex 62.5238 1.41365 2
      vertex 64 0 2
      vertex 63.5898 1.65696 2
    endloop
  endfacet
  facet normal 0 0 1
    outer loop
      vertex 61.669 2.09537 2
      vertex 64 0 2
      vertex 62.5238 1.41365 2
    endloop
  endfacet
  facet normal 0 0 1
    outer loop
      vertex 61.0719 2.57149 2
      vertex 64 0 2
      vertex 61.669 2.09537 2
    endloop
  endfacet
  facet normal -0 0 1
    outer loop
      vertex 5.6 3.5 2
      vertex 61.0719 2.57149 2
      vertex 6 6 2
    endloop
  endfacet
  facet normal 0 0 1
    outer loop
      vertex 6 106.5 2
      vertex 5.6 53 2
      vertex 6 6 2
    endloop
  endfacet
  facet normal -0 0 1
    outer loop
      vertex 4.80933 51.3582 2
      vertex 6 6 2
      vertex 5.6 53 2
    endloop
  endfacet
  facet normal 0 0 1
    outer loop
      vertex 4.80933 1.85815 2
      vertex 61.0719 2.57149 2
      vertex 5.6 3.5 2
    endloop
  endfacet
  facet normal 0 0 1
    outer loop
      vertex 3 0 2
      vertex 61.0719 2.57149 2
      vertex 4.80933 1.85815 2
    endloop
  endfacet
  facet normal 0 0 1
    outer loop
      vertex 3 0.14683 2
      vertex 4.80933 1.85815 2
      vertex 3.03271 1.45265 2
    endloop
  endfacet
  facet normal 0 0 1
    outer loop
      vertex 3 0 2
      vertex 4.80933 1.85815 2
      vertex 3 0.14683 2
    endloop
  endfacet
  facet normal 0 0 1
    outer loop
      vertex 61.0719 2.57149 2
      vertex 3 0 2
      vertex 64 0 2
    endloop
  endfacet
  facet normal 0 1 -0
    outer loop
      vertex 6 106.5 0
      vertex 0 106.5 2
      vertex 6 106.5 2
    endloop
  endfacet
  facet normal 0 1 0
    outer loop
      vertex 0 106.5 2
      vertex 6 106.5 0
      vertex 0 106.5 0
    endloop
  endfacet
  facet normal 0 0 -1
    outer loop
      vertex 4.80933 54.6418 0
      vertex 5.6 103.5 0
      vertex 5.6 53 0
    endloop
  endfacet
  facet normal 0 0 -1
    outer loop
      vertex 4.80933 54.6418 0
      vertex 4.80933 101.858 0
      vertex 5.6 103.5 0
    endloop
  endfacet
  facet normal 0 0 -1
    outer loop
      vertex 3.03271 55.0473 0
      vertex 4.80933 101.858 0
      vertex 4.80933 54.6418 0
    endloop
  endfacet
  facet normal 0 0 -1
    outer loop
      vertex 3.03271 55.0473 0
      vertex 3.03271 101.453 0
      vertex 4.80933 101.858 0
    endloop
  endfacet
  facet normal 0 0 -1
    outer loop
      vertex 1.60796 53.9112 0
      vertex 3.03271 101.453 0
      vertex 3.03271 55.0473 0
    endloop
  endfacet
  facet normal -0 0 -1
    outer loop
      vertex 3.03271 101.453 0
      vertex 1.60796 53.9112 0
      vertex 1.60796 102.589 0
    endloop
  endfacet
  facet normal 0 0 -1
    outer loop
      vertex 3.03271 5.54735 0
      vertex 6 6 0
      vertex 4.80933 5.14185 0
    endloop
  endfacet
  facet normal 0 0 -1
    outer loop
      vertex 6 6 0
      vertex 4.80933 51.3582 0
      vertex 5.6 53 0
    endloop
  endfacet
  facet normal 0 0 -1
    outer loop
      vertex 3.03271 50.9527 0
      vertex 6 6 0
      vertex 3.03271 5.54735 0
    endloop
  endfacet
  facet normal 0 0 -1
    outer loop
      vertex 6 6 0
      vertex 3.03271 50.9527 0
      vertex 4.80933 51.3582 0
    endloop
  endfacet
  facet normal 0 0 -1
    outer loop
      vertex 1.60796 4.41116 0
      vertex 3.03271 50.9527 0
      vertex 3.03271 5.54735 0
    endloop
  endfacet
  facet normal -0 0 -1
    outer loop
      vertex 3.03271 50.9527 0
      vertex 1.60796 4.41116 0
      vertex 1.60796 52.0888 0
    endloop
  endfacet
  facet normal 0 0 -1
    outer loop
      vertex 64 0 0
      vertex 62.8702 1.45576 0
      vertex 64 1.71362 0
    endloop
  endfacet
  facet normal 0 0 -1
    outer loop
      vertex 64 0 0
      vertex 62.5149 1.37466 0
      vertex 62.8702 1.45576 0
    endloop
  endfacet
  facet normal 0 0 -1
    outer loop
      vertex 64 0 0
      vertex 62.23 1.60189 0
      vertex 62.5149 1.37466 0
    endloop
  endfacet
  facet normal 0 0 -1
    outer loop
      vertex 64 0 0
      vertex 61.0359 2.55413 0
      vertex 62.23 1.60189 0
    endloop
  endfacet
  facet normal 0 0 -1
    outer loop
      vertex 61.0359 2.55413 0
      vertex 6 6 0
      vertex 61.0359 4.44587 0
    endloop
  endfacet
  facet normal 0 0 -1
    outer loop
      vertex 3 0 0
      vertex 61.0359 2.55413 0
      vertex 64 0 0
    endloop
  endfacet
  facet normal 0 0 -1
    outer loop
      vertex 4.80933 5.14185 0
      vertex 6 6 0
      vertex 5.6 3.5 0
    endloop
  endfacet
  facet normal 0 0 -1
    outer loop
      vertex 61.0359 2.55413 0
      vertex 5.6 3.5 0
      vertex 6 6 0
    endloop
  endfacet
  facet normal -0 0 -1
    outer loop
      vertex 61.0359 2.55413 0
      vertex 4.80933 1.85815 0
      vertex 5.6 3.5 0
    endloop
  endfacet
  facet normal 0 0 -1
    outer loop
      vertex 61.0359 2.55413 0
      vertex 3 0 0
      vertex 4.80933 1.85815 0
    endloop
  endfacet
  facet normal 0 0 -1
    outer loop
      vertex 3 0.14683 0
      vertex 4.80933 1.85815 0
      vertex 3 0 0
    endloop
  endfacet
  facet normal 0 0 -1
    outer loop
      vertex 4.80933 1.85815 0
      vertex 3 0.14683 0
      vertex 3.03271 1.45265 0
    endloop
  endfacet
  facet normal 0 0 -1
    outer loop
      vertex 2.07295 0.14683 0
      vertex 3.03271 1.45265 0
      vertex 3 0.14683 0
    endloop
  endfacet
  facet normal 0 0 -1
    outer loop
      vertex 0.572948 1.23664 0
      vertex 3.03271 1.45265 0
      vertex 2.07295 0.14683 0
    endloop
  endfacet
  facet normal 0 0 -1
    outer loop
      vertex 0 3 0
      vertex 1.60796 4.41116 0
      vertex 1.60796 2.58884 0
    endloop
  endfacet
  facet normal -0 0 -1
    outer loop
      vertex 1.60796 4.41116 0
      vertex 0 3 0
      vertex 1.60796 52.0888 0
    endloop
  endfacet
  facet normal -0 0 -1
    outer loop
      vertex 1.60796 52.0888 0
      vertex 0 3 0
      vertex 1.60796 53.9112 0
    endloop
  endfacet
  facet normal 0 0 -1
    outer loop
      vertex 0 106.5 0
      vertex 1.60796 53.9112 0
      vertex 0 3 0
    endloop
  endfacet
  facet normal 0 0 -1
    outer loop
      vertex 0 3 0
      vertex 1.60796 2.58884 0
      vertex 0.572948 1.23664 0
    endloop
  endfacet
  facet normal -0 0 -1
    outer loop
      vertex 3.03271 1.45265 0
      vertex 0.572948 1.23664 0
      vertex 1.60796 2.58884 0
    endloop
  endfacet
  facet normal 0 0 -1
    outer loop
      vertex 62.8702 5.54424 0
      vertex 64 6 0
      vertex 64 5.28638 0
    endloop
  endfacet
  facet normal 0 0 -1
    outer loop
      vertex 62.5149 5.62534 0
      vertex 64 6 0
      vertex 62.8702 5.54424 0
    endloop
  endfacet
  facet normal 0 0 -1
    outer loop
      vertex 62.5149 5.62534 0
      vertex 6 6 0
      vertex 64 6 0
    endloop
  endfacet
  facet normal 0 0 -1
    outer loop
      vertex 62.23 5.3981 0
      vertex 6 6 0
      vertex 62.5149 5.62534 0
    endloop
  endfacet
  facet normal 0 0 -1
    outer loop
      vertex 6 6 0
      vertex 62.23 5.3981 0
      vertex 61.0359 4.44587 0
    endloop
  endfacet
  facet normal 0 0 -1
    outer loop
      vertex 6 6 0
      vertex 5.6 53 0
      vertex 6 106.5 0
    endloop
  endfacet
  facet normal 0 0 -1
    outer loop
      vertex 5.6 103.5 0
      vertex 6 106.5 0
      vertex 5.6 53 0
    endloop
  endfacet
  facet normal 0 0 -1
    outer loop
      vertex 4.80933 105.142 0
      vertex 6 106.5 0
      vertex 5.6 103.5 0
    endloop
  endfacet
  facet normal 0 0 -1
    outer loop
      vertex 3.03271 105.547 0
      vertex 6 106.5 0
      vertex 4.80933 105.142 0
    endloop
  endfacet
  facet normal 0 0 -1
    outer loop
      vertex 1.60796 53.9112 0
      vertex 0 106.5 0
      vertex 1.60796 102.589 0
    endloop
  endfacet
  facet normal 0 0 -1
    outer loop
      vertex 3.03271 105.547 0
      vertex 0 106.5 0
      vertex 6 106.5 0
    endloop
  endfacet
  facet normal 0 0 -1
    outer loop
      vertex 1.60796 104.411 0
      vertex 0 106.5 0
      vertex 3.03271 105.547 0
    endloop
  endfacet
  facet normal 0 0 -1
    outer loop
      vertex 1.60796 102.589 0
      vertex 0 106.5 0
      vertex 1.60796 104.411 0
    endloop
  endfacet
  facet normal 0 -1 0
    outer loop
      vertex 3 0 0
      vertex 64 0 2
      vertex 3 0 2
    endloop
  endfacet
  facet normal 0 -1 -0
    outer loop
      vertex 64 0 2
      vertex 3 0 0
      vertex 64 0 0
    endloop
  endfacet
  facet normal -1 0 0
    outer loop
      vertex 3 0 0
      vertex 3 0.14683 2
      vertex 3 0.14683 0
    endloop
  endfacet
  facet normal -1 -0 0
    outer loop
      vertex 3 0.14683 2
      vertex 3 0 0
      vertex 3 0 2
    endloop
  endfacet
  facet normal -0.951057 -0.309017 0
    outer loop
      vertex 0.572948 1.23664 0
      vertex 0 3 2
      vertex 0 3 0
    endloop
  endfacet
  facet normal -0.951057 -0.309017 0
    outer loop
      vertex 0 3 2
      vertex 0.572948 1.23664 0
      vertex 0.572948 1.23664 2
    endloop
  endfacet
  facet normal -0.587785 -0.809017 0
    outer loop
      vertex 0.572948 1.23664 0
      vertex 2.07295 0.14683 2
      vertex 0.572948 1.23664 2
    endloop
  endfacet
  facet normal -0.587785 -0.809017 -0
    outer loop
      vertex 2.07295 0.14683 2
      vertex 0.572948 1.23664 0
      vertex 2.07295 0.14683 0
    endloop
  endfacet
  facet normal 0 -1 0
    outer loop
      vertex 2.07295 0.14683 0
      vertex 3 0.14683 2
      vertex 2.07295 0.14683 2
    endloop
  endfacet
  facet normal 0 -1 -0
    outer loop
      vertex 3 0.14683 2
      vertex 2.07295 0.14683 0
      vertex 3 0.14683 0
    endloop
  endfacet
  facet normal 1 -0 0
    outer loop
      vertex 6 6 2
      vertex 6 106.5 0
      vertex 6 106.5 2
    endloop
  endfacet
  facet normal 1 0 0
    outer loop
      vertex 6 106.5 0
      vertex 6 6 2
      vertex 6 6 0
    endloop
  endfacet
  facet normal 0 1 -0
    outer loop
      vertex 64 6 0
      vertex 6 6 2
      vertex 64 6 2
    endloop
  endfacet
  facet normal 0 1 0
    outer loop
      vertex 6 6 2
      vertex 64 6 0
      vertex 6 6 0
    endloop
  endfacet
  facet normal -0.900969 -0.433884 0
    outer loop
      vertex 5.6 3.5 0
      vertex 4.80933 5.14185 2
      vertex 4.80933 5.14185 0
    endloop
  endfacet
  facet normal -0.900969 -0.433884 0
    outer loop
      vertex 4.80933 5.14185 2
      vertex 5.6 3.5 0
      vertex 5.6 3.5 2
    endloop
  endfacet
  facet normal 1 -0 0
    outer loop
      vertex 1.60796 2.58884 2
      vertex 1.60796 4.41116 0
      vertex 1.60796 4.41116 2
    endloop
  endfacet
  facet normal 1 0 0
    outer loop
      vertex 1.60796 4.41116 0
      vertex 1.60796 2.58884 2
      vertex 1.60796 2.58884 0
    endloop
  endfacet
  facet normal 0.62349 -0.781832 0
    outer loop
      vertex 1.60796 4.41116 0
      vertex 3.03271 5.54735 2
      vertex 1.60796 4.41116 2
    endloop
  endfacet
  facet normal 0.62349 -0.781832 0
    outer loop
      vertex 3.03271 5.54735 2
      vertex 1.60796 4.41116 0
      vertex 3.03271 5.54735 0
    endloop
  endfacet
  facet normal -0.222521 -0.974928 0
    outer loop
      vertex 3.03271 5.54735 0
      vertex 4.80933 5.14185 2
      vertex 3.03271 5.54735 2
    endloop
  endfacet
  facet normal -0.222521 -0.974928 -0
    outer loop
      vertex 4.80933 5.14185 2
      vertex 3.03271 5.54735 0
      vertex 4.80933 5.14185 0
    endloop
  endfacet
  facet normal -0.900969 0.433884 0
    outer loop
      vertex 4.80933 1.85815 0
      vertex 5.6 3.5 2
      vertex 5.6 3.5 0
    endloop
  endfacet
  facet normal -0.900969 0.433884 0
    outer loop
      vertex 5.6 3.5 2
      vertex 4.80933 1.85815 0
      vertex 4.80933 1.85815 2
    endloop
  endfacet
  facet normal 0.62349 0.781832 -0
    outer loop
      vertex 3.03271 1.45265 0
      vertex 1.60796 2.58884 2
      vertex 3.03271 1.45265 2
    endloop
  endfacet
  facet normal 0.62349 0.781832 0
    outer loop
      vertex 1.60796 2.58884 2
      vertex 3.03271 1.45265 0
      vertex 1.60796 2.58884 0
    endloop
  endfacet
  facet normal -0.222521 0.974928 0
    outer loop
      vertex 4.80933 1.85815 0
      vertex 3.03271 1.45265 2
      vertex 4.80933 1.85815 2
    endloop
  endfacet
  facet normal -0.222521 0.974928 0
    outer loop
      vertex 3.03271 1.45265 2
      vertex 4.80933 1.85815 0
      vertex 3.03271 1.45265 0
    endloop
  endfacet
  facet normal -0.900969 -0.433884 0
    outer loop
      vertex 5.6 53 0
      vertex 4.80933 54.6418 2
      vertex 4.80933 54.6418 0
    endloop
  endfacet
  facet normal -0.900969 -0.433884 0
    outer loop
      vertex 4.80933 54.6418 2
      vertex 5.6 53 0
      vertex 5.6 53 2
    endloop
  endfacet
  facet normal 1 -0 0
    outer loop
      vertex 1.60796 52.0888 2
      vertex 1.60796 53.9112 0
      vertex 1.60796 53.9112 2
    endloop
  endfacet
  facet normal 1 0 0
    outer loop
      vertex 1.60796 53.9112 0
      vertex 1.60796 52.0888 2
      vertex 1.60796 52.0888 0
    endloop
  endfacet
  facet normal 0.62349 -0.781832 0
    outer loop
      vertex 1.60796 53.9112 0
      vertex 3.03271 55.0473 2
      vertex 1.60796 53.9112 2
    endloop
  endfacet
  facet normal 0.62349 -0.781832 0
    outer loop
      vertex 3.03271 55.0473 2
      vertex 1.60796 53.9112 0
      vertex 3.03271 55.0473 0
    endloop
  endfacet
  facet normal -0.222521 -0.974928 0
    outer loop
      vertex 3.03271 55.0473 0
      vertex 4.80933 54.6418 2
      vertex 3.03271 55.0473 2
    endloop
  endfacet
  facet normal -0.222521 -0.974928 -0
    outer loop
      vertex 4.80933 54.6418 2
      vertex 3.03271 55.0473 0
      vertex 4.80933 54.6418 0
    endloop
  endfacet
  facet normal -0.900969 0.433884 0
    outer loop
      vertex 4.80933 51.3582 0
      vertex 5.6 53 2
      vertex 5.6 53 0
    endloop
  endfacet
  facet normal -0.900969 0.433884 0
    outer loop
      vertex 5.6 53 2
      vertex 4.80933 51.3582 0
      vertex 4.80933 51.3582 2
    endloop
  endfacet
  facet normal 0.62349 0.781832 -0
    outer loop
      vertex 3.03271 50.9527 0
      vertex 1.60796 52.0888 2
      vertex 3.03271 50.9527 2
    endloop
  endfacet
  facet normal 0.62349 0.781832 0
    outer loop
      vertex 1.60796 52.0888 2
      vertex 3.03271 50.9527 0
      vertex 1.60796 52.0888 0
    endloop
  endfacet
  facet normal -0.222521 0.974928 0
    outer loop
      vertex 4.80933 51.3582 0
      vertex 3.03271 50.9527 2
      vertex 4.80933 51.3582 2
    endloop
  endfacet
  facet normal -0.222521 0.974928 0
    outer loop
      vertex 3.03271 50.9527 2
      vertex 4.80933 51.3582 0
      vertex 3.03271 50.9527 0
    endloop
  endfacet
  facet normal -0.900969 -0.433884 0
    outer loop
      vertex 5.6 103.5 0
      vertex 4.80933 105.142 2
      vertex 4.80933 105.142 0
    endloop
  endfacet
  facet normal -0.900969 -0.433884 0
    outer loop
      vertex 4.80933 105.142 2
      vertex 5.6 103.5 0
      vertex 5.6 103.5 2
    endloop
  endfacet
  facet normal 1 -0 0
    outer loop
      vertex 1.60796 102.589 2
      vertex 1.60796 104.411 0
      vertex 1.60796 104.411 2
    endloop
  endfacet
  facet normal 1 0 0
    outer loop
      vertex 1.60796 104.411 0
      vertex 1.60796 102.589 2
      vertex 1.60796 102.589 0
    endloop
  endfacet
  facet normal 0.62349 -0.781832 0
    outer loop
      vertex 1.60796 104.411 0
      vertex 3.03271 105.547 2
      vertex 1.60796 104.411 2
    endloop
  endfacet
  facet normal 0.62349 -0.781832 0
    outer loop
      vertex 3.03271 105.547 2
      vertex 1.60796 104.411 0
      vertex 3.03271 105.547 0
    endloop
  endfacet
  facet normal -0.222521 -0.974928 0
    outer loop
      vertex 3.03271 105.547 0
      vertex 4.80933 105.142 2
      vertex 3.03271 105.547 2
    endloop
  endfacet
  facet normal -0.222521 -0.974928 -0
    outer loop
      vertex 4.80933 105.142 2
      vertex 3.03271 105.547 0
      vertex 4.80933 105.142 0
    endloop
  endfacet
  facet normal -0.900969 0.433884 0
    outer loop
      vertex 4.80933 101.858 0
      vertex 5.6 103.5 2
      vertex 5.6 103.5 0
    endloop
  endfacet
  facet normal -0.900969 0.433884 0
    outer loop
      vertex 5.6 103.5 2
      vertex 4.80933 101.858 0
      vertex 4.80933 101.858 2
    endloop
  endfacet
  facet normal 0.62349 0.781832 -0
    outer loop
      vertex 3.03271 101.453 0
      vertex 1.60796 102.589 2
      vertex 3.03271 101.453 2
    endloop
  endfacet
  facet normal 0.62349 0.781832 0
    outer loop
      vertex 1.60796 102.589 2
      vertex 3.03271 101.453 0
      vertex 1.60796 102.589 0
    endloop
  endfacet
  facet normal -0.222521 0.974928 0
    outer loop
      vertex 4.80933 101.858 0
      vertex 3.03271 101.453 2
      vertex 4.80933 101.858 2
    endloop
  endfacet
  facet normal -0.222521 0.974928 0
    outer loop
      vertex 3.03271 101.453 2
      vertex 4.80933 101.858 0
      vertex 3.03271 101.453 0
    endloop
  endfacet
  facet normal 0.62339 0.781704 -0.0180166
    outer loop
      vertex 61.0359 2.55413 0
      vertex 61.669 2.09537 2
      vertex 62.23 1.60189 0
    endloop
  endfacet
  facet normal 0.623388 0.781705 -0.018016
    outer loop
      vertex 61.669 2.09537 2
      vertex 61.0359 2.55413 0
      vertex 61.0719 2.57149 2
    endloop
  endfacet
  facet normal -0.222485 0.97477 -0.0180165
    outer loop
      vertex 64 1.71362 0
      vertex 63.5898 1.65696 2
      vertex 64 1.75059 2
    endloop
  endfacet
  facet normal -0.222485 0.97477 -0.0180164
    outer loop
      vertex 63.5898 1.65696 2
      vertex 64 1.71362 0
      vertex 62.8702 1.45576 0
    endloop
  endfacet
  facet normal -0.222485 -0.97477 -0.0180163
    outer loop
      vertex 64 5.28638 0
      vertex 63.5898 5.34304 2
      vertex 62.8702 5.54424 0
    endloop
  endfacet
  facet normal -0.222485 -0.97477 -0.0180164
    outer loop
      vertex 63.5898 5.34304 2
      vertex 64 5.28638 0
      vertex 64 5.24941 2
    endloop
  endfacet
  facet normal -0.222485 -0.97477 -0.0180166
    outer loop
      vertex 62.8702 5.54424 0
      vertex 62.5238 5.58635 2
      vertex 62.5149 5.62534 0
    endloop
  endfacet
  facet normal -0.222484 -0.97477 -0.0180165
    outer loop
      vertex 62.5238 5.58635 2
      vertex 62.8702 5.54424 0
      vertex 63.5898 5.34304 2
    endloop
  endfacet
  facet normal 0.999838 0 -0.0180158
    outer loop
      vertex 61.0719 2.57149 2
      vertex 61.0359 4.44587 0
      vertex 61.0719 4.42851 2
    endloop
  endfacet
  facet normal 0.999838 0 -0.0180158
    outer loop
      vertex 61.0359 4.44587 0
      vertex 61.0719 2.57149 2
      vertex 61.0359 2.55413 0
    endloop
  endfacet
  facet normal -0.222484 0.97477 -0.0180165
    outer loop
      vertex 62.8702 1.45576 0
      vertex 62.5238 1.41365 2
      vertex 63.5898 1.65696 2
    endloop
  endfacet
  facet normal -0.222485 0.97477 -0.0180167
    outer loop
      vertex 62.5238 1.41365 2
      vertex 62.8702 1.45576 0
      vertex 62.5149 1.37466 0
    endloop
  endfacet
  facet normal 0.623386 0.781707 -0.0180162
    outer loop
      vertex 62.23 1.60189 0
      vertex 62.5238 1.41365 2
      vertex 62.5149 1.37466 0
    endloop
  endfacet
  facet normal 0.623389 0.781704 -0.0180169
    outer loop
      vertex 62.5238 1.41365 2
      vertex 62.23 1.60189 0
      vertex 61.669 2.09537 2
    endloop
  endfacet
  facet normal 0.623389 -0.781704 -0.018017
    outer loop
      vertex 62.23 5.3981 0
      vertex 62.5238 5.58635 2
      vertex 61.669 4.90463 2
    endloop
  endfacet
  facet normal 0.623385 -0.781707 -0.0180162
    outer loop
      vertex 62.5238 5.58635 2
      vertex 62.23 5.3981 0
      vertex 62.5149 5.62534 0
    endloop
  endfacet
  facet normal 0.623388 -0.781705 -0.0180161
    outer loop
      vertex 61.0359 4.44587 0
      vertex 61.669 4.90463 2
      vertex 61.0719 4.42851 2
    endloop
  endfacet
  facet normal 0.62339 -0.781704 -0.0180168
    outer loop
      vertex 61.669 4.90463 2
      vertex 61.0359 4.44587 0
      vertex 62.23 5.3981 0
    endloop
  endfacet
  facet normal 1 -0 0
    outer loop
      vertex 64 0 2
      vertex 64 1.71362 0
      vertex 64 1.75059 2
    endloop
  endfacet
  facet normal 1 0 0
    outer loop
      vertex 64 1.71362 0
      vertex 64 0 2
      vertex 64 0 0
    endloop
  endfacet
  facet normal 1 0 0
    outer loop
      vertex 64 6 2
      vertex 64 5.28638 0
      vertex 64 6 0
    endloop
  endfacet
  facet normal 1 0 -0
    outer loop
      vertex 64 5.28638 0
      vertex 64 6 2
      vertex 64 5.24941 2
    endloop
  endfacet
endsolid OpenSCAD_Model
