solid OpenSCAD_Model
  facet normal -1 0 0
    outer loop
      vertex 0 0 8.17872
      vertex 0 10 0
      vertex 0 0 0
    endloop
  endfacet
  facet normal -1 0 0
    outer loop
      vertex 0 10 0
      vertex 0 0 8.17872
      vertex 0 10 10.3043
    endloop
  endfacet
  facet normal 1 -0 0
    outer loop
      vertex 90 0 8.17872
      vertex 90 10 0
      vertex 90 10 10.3043
    endloop
  endfacet
  facet normal 1 0 0
    outer loop
      vertex 90 10 0
      vertex 90 0 8.17872
      vertex 90 0 0
    endloop
  endfacet
  facet normal 0 1 -0
    outer loop
      vertex 90 10 0
      vertex 0 10 10.3043
      vertex 90 10 10.3043
    endloop
  endfacet
  facet normal 0 1 0
    outer loop
      vertex 0 10 10.3043
      vertex 90 10 0
      vertex 0 10 0
    endloop
  endfacet
  facet normal 0 0 -1
    outer loop
      vertex 90 0 0
      vertex 71.5 5 0
      vertex 90 10 0
    endloop
  endfacet
  facet normal 0 0 -1
    outer loop
      vertex 90 0 0
      vertex 70.4635 3.57341 0
      vertex 71.5 5 0
    endloop
  endfacet
  facet normal 0 0 -1
    outer loop
      vertex 68.7865 4.11832 0
      vertex 21.5 5 0
      vertex 68.7865 5.88168 0
    endloop
  endfacet
  facet normal 0 0 -1
    outer loop
      vertex 20.4635 3.57341 0
      vertex 68.7865 4.11832 0
      vertex 70.4635 3.57341 0
    endloop
  endfacet
  facet normal 0 0 -1
    outer loop
      vertex 20.4635 3.57341 0
      vertex 70.4635 3.57341 0
      vertex 90 0 0
    endloop
  endfacet
  facet normal -0 0 -1
    outer loop
      vertex 68.7865 4.11832 0
      vertex 20.4635 3.57341 0
      vertex 21.5 5 0
    endloop
  endfacet
  facet normal -0 0 -1
    outer loop
      vertex 18.7865 4.11832 0
      vertex 0 0 0
      vertex 18.7865 5.88168 0
    endloop
  endfacet
  facet normal -0 0 -1
    outer loop
      vertex 20.4635 3.57341 0
      vertex 0 0 0
      vertex 18.7865 4.11832 0
    endloop
  endfacet
  facet normal 0 0 -1
    outer loop
      vertex 0 0 0
      vertex 20.4635 3.57341 0
      vertex 90 0 0
    endloop
  endfacet
  facet normal 0 0 -1
    outer loop
      vertex 70.4635 6.42658 0
      vertex 90 10 0
      vertex 71.5 5 0
    endloop
  endfacet
  facet normal 0 0 -1
    outer loop
      vertex 20.4635 6.42658 0
      vertex 68.7865 5.88168 0
      vertex 21.5 5 0
    endloop
  endfacet
  facet normal 0 0 -1
    outer loop
      vertex 68.7865 5.88168 0
      vertex 20.4635 6.42658 0
      vertex 70.4635 6.42658 0
    endloop
  endfacet
  facet normal 0 0 -1
    outer loop
      vertex 70.4635 6.42658 0
      vertex 20.4635 6.42658 0
      vertex 90 10 0
    endloop
  endfacet
  facet normal 0 0 -1
    outer loop
      vertex 0 10 0
      vertex 18.7865 5.88168 0
      vertex 0 0 0
    endloop
  endfacet
  facet normal 0 0 -1
    outer loop
      vertex 20.4635 6.42658 0
      vertex 0 10 0
      vertex 90 10 0
    endloop
  endfacet
  facet normal 0 0 -1
    outer loop
      vertex 18.7865 5.88168 0
      vertex 0 10 0
      vertex 20.4635 6.42658 0
    endloop
  endfacet
  facet normal 0 -1 0
    outer loop
      vertex 0 0 0
      vertex 90 0 8.17872
      vertex 0 0 8.17872
    endloop
  endfacet
  facet normal 0 -1 -0
    outer loop
      vertex 90 0 8.17872
      vertex 0 0 0
      vertex 90 0 0
    endloop
  endfacet
  facet normal -2.85891e-08 -0.207912 0.978148
    outer loop
      vertex 90 10 10.3043
      vertex 73.6855 5 9.24151
      vertex 90 0 8.17872
    endloop
  endfacet
  facet normal 2.21668e-08 -0.207912 0.978148
    outer loop
      vertex 90 10 10.3043
      vertex 73.2575 6.65098 9.59243
      vertex 73.6855 5 9.24151
    endloop
  endfacet
  facet normal 5.20243e-07 -0.207914 0.978147
    outer loop
      vertex 90 10 10.3043
      vertex 73.2441 6.70265 9.60342
      vertex 73.2575 6.65098 9.59243
    endloop
  endfacet
  facet normal -1.61725e-06 -0.207904 0.978149
    outer loop
      vertex 90 10 10.3043
      vertex 73.2081 6.74262 9.61191
      vertex 73.2441 6.70265 9.60342
    endloop
  endfacet
  facet normal -1.41273e-08 -0.207912 0.978148
    outer loop
      vertex 90 10 10.3043
      vertex 72.0719 8.00161 9.87952
      vertex 73.2081 6.74262 9.61191
    endloop
  endfacet
  facet normal -2.50856e-08 -0.207912 0.978148
    outer loop
      vertex 90 10 10.3043
      vertex 70.4925 8.59277 10.0052
      vertex 72.0719 8.00161 9.87952
    endloop
  endfacet
  facet normal 9.79973e-07 -0.207925 0.978145
    outer loop
      vertex 90 10 10.3043
      vertex 70.4387 8.6129 10.0095
      vertex 70.4925 8.59277 10.0052
    endloop
  endfacet
  facet normal -1.31021e-08 -0.207912 0.978148
    outer loop
      vertex 66.4325 5.87932 9.42841
      vertex 23.6855 5 9.24151
      vertex 66.4106 4.1153 9.05346
    endloop
  endfacet
  facet normal -1.22975e-09 -0.207912 0.978148
    outer loop
      vertex 23.2441 6.70265 9.60342
      vertex 66.4325 5.87932 9.42841
      vertex 67.2645 7.42345 9.75663
    endloop
  endfacet
  facet normal 1.71665e-07 -0.207898 0.97815
    outer loop
      vertex 22.0719 8.00161 9.87952
      vertex 67.2645 7.42345 9.75663
      vertex 67.3102 7.45453 9.76323
    endloop
  endfacet
  facet normal 2.77968e-09 -0.207912 0.978148
    outer loop
      vertex 22.0719 8.00161 9.87952
      vertex 67.3102 7.45453 9.76323
      vertex 68.7085 8.4054 9.96535
    endloop
  endfacet
  facet normal 0 -0.207914 0.978147
    outer loop
      vertex 20.4387 8.6129 10.0095
      vertex 68.7085 8.4054 9.96535
      vertex 70.4387 8.6129 10.0095
    endloop
  endfacet
  facet normal -9.25333e-09 -0.207912 0.978148
    outer loop
      vertex 66.4325 5.87932 9.42841
      vertex 23.2575 6.65098 9.59243
      vertex 23.6855 5 9.24151
    endloop
  endfacet
  facet normal 0 -0.207912 0.978148
    outer loop
      vertex 20.4387 8.6129 10.0095
      vertex 70.4387 8.6129 10.0095
      vertex 90 10 10.3043
    endloop
  endfacet
  facet normal -5.62826e-08 -0.207914 0.978147
    outer loop
      vertex 66.4325 5.87932 9.42841
      vertex 23.2441 6.70265 9.60342
      vertex 23.2575 6.65098 9.59243
    endloop
  endfacet
  facet normal -1.5584e-07 -0.207903 0.97815
    outer loop
      vertex 67.2645 7.42345 9.75663
      vertex 23.2081 6.74262 9.61191
      vertex 23.2441 6.70265 9.60342
    endloop
  endfacet
  facet normal -7.83847e-09 -0.207912 0.978148
    outer loop
      vertex 67.2645 7.42345 9.75663
      vertex 22.0719 8.00161 9.87952
      vertex 23.2081 6.74262 9.61191
    endloop
  endfacet
  facet normal 1.92417e-09 -0.207912 0.978148
    outer loop
      vertex 68.7085 8.4054 9.96535
      vertex 20.4925 8.59277 10.0052
      vertex 22.0719 8.00161 9.87952
    endloop
  endfacet
  facet normal -6.33278e-08 -0.207928 0.978144
    outer loop
      vertex 68.7085 8.4054 9.96535
      vertex 20.4387 8.6129 10.0095
      vertex 20.4925 8.59277 10.0052
    endloop
  endfacet
  facet normal -1.67343e-09 -0.207912 0.978148
    outer loop
      vertex 16.4325 5.87932 9.42841
      vertex 0 10 10.3043
      vertex 16.4106 4.1153 9.05346
    endloop
  endfacet
  facet normal 1.37419e-08 -0.207912 0.978148
    outer loop
      vertex 17.2645 7.42345 9.75663
      vertex 0 10 10.3043
      vertex 16.4325 5.87932 9.42841
    endloop
  endfacet
  facet normal 1.74379e-06 -0.207901 0.97815
    outer loop
      vertex 17.3102 7.45453 9.76323
      vertex 0 10 10.3043
      vertex 17.2645 7.42345 9.75663
    endloop
  endfacet
  facet normal 2.52995e-08 -0.207912 0.978148
    outer loop
      vertex 18.7085 8.4054 9.96535
      vertex 0 10 10.3043
      vertex 17.3102 7.45453 9.76323
    endloop
  endfacet
  facet normal -8.12641e-08 -0.207913 0.978147
    outer loop
      vertex 20.4387 8.6129 10.0095
      vertex 0 10 10.3043
      vertex 18.7085 8.4054 9.96535
    endloop
  endfacet
  facet normal 0 -0.207912 0.978148
    outer loop
      vertex 0 10 10.3043
      vertex 20.4387 8.6129 10.0095
      vertex 90 10 10.3043
    endloop
  endfacet
  facet normal -2.56521e-08 -0.207912 0.978148
    outer loop
      vertex 73.2935 3.32272 8.88499
      vertex 90 0 8.17872
      vertex 73.6855 5 9.24151
    endloop
  endfacet
  facet normal -3.45215e-07 -0.207913 0.978147
    outer loop
      vertex 73.2828 3.27705 8.87528
      vertex 90 0 8.17872
      vertex 73.2935 3.32272 8.88499
    endloop
  endfacet
  facet normal 9.57867e-07 -0.207907 0.978149
    outer loop
      vertex 73.2523 3.24196 8.86782
      vertex 90 0 8.17872
      vertex 73.2828 3.27705 8.87528
    endloop
  endfacet
  facet normal -7.64496e-08 -0.207912 0.978148
    outer loop
      vertex 72.1158 1.93471 8.58996
      vertex 90 0 8.17872
      vertex 73.2523 3.24196 8.86782
    endloop
  endfacet
  facet normal 5.97247e-08 -0.207911 0.978148
    outer loop
      vertex 70.4898 1.30977 8.45712
      vertex 90 0 8.17872
      vertex 72.1158 1.93471 8.58996
    endloop
  endfacet
  facet normal -2.23547e-06 -0.207943 0.978141
    outer loop
      vertex 70.4499 1.29445 8.45387
      vertex 90 0 8.17872
      vertex 70.4898 1.30977 8.45712
    endloop
  endfacet
  facet normal -1.32402e-08 -0.207912 0.978148
    outer loop
      vertex 23.2935 3.32272 8.88499
      vertex 66.4106 4.1153 9.05346
      vertex 23.6855 5 9.24151
    endloop
  endfacet
  facet normal 1.78012e-08 -0.207913 0.978147
    outer loop
      vertex 23.2828 3.27705 8.87528
      vertex 66.4106 4.1153 9.05346
      vertex 23.2935 3.32272 8.88499
    endloop
  endfacet
  facet normal -5.15052e-09 -0.207912 0.978148
    outer loop
      vertex 66.4106 4.1153 9.05346
      vertex 23.2828 3.27705 8.87528
      vertex 67.2178 2.53521 8.7176
    endloop
  endfacet
  facet normal 1.01159e-07 -0.207906 0.978149
    outer loop
      vertex 23.2523 3.24196 8.86782
      vertex 67.2178 2.53521 8.7176
      vertex 23.2828 3.27705 8.87528
    endloop
  endfacet
  facet normal 2.19553e-09 -0.207912 0.978148
    outer loop
      vertex 22.1158 1.93471 8.58996
      vertex 67.2178 2.53521 8.7176
      vertex 23.2523 3.24196 8.86782
    endloop
  endfacet
  facet normal -3.56866e-07 -0.207886 0.978153
    outer loop
      vertex 67.2178 2.53521 8.7176
      vertex 22.1158 1.93471 8.58996
      vertex 67.2547 2.50937 8.71211
    endloop
  endfacet
  facet normal -1.48137e-08 -0.207912 0.978148
    outer loop
      vertex 67.2547 2.50937 8.71211
      vertex 22.1158 1.93471 8.58996
      vertex 68.6773 1.5124 8.50019
    endloop
  endfacet
  facet normal -2.22404e-09 -0.207911 0.978148
    outer loop
      vertex 20.4898 1.30977 8.45712
      vertex 68.6773 1.5124 8.50019
      vertex 22.1158 1.93471 8.58996
    endloop
  endfacet
  facet normal 1.6852e-07 -0.207949 0.97814
    outer loop
      vertex 20.4499 1.29445 8.45387
      vertex 68.6773 1.5124 8.50019
      vertex 20.4898 1.30977 8.45712
    endloop
  endfacet
  facet normal 0 -0.207914 0.978147
    outer loop
      vertex 68.6773 1.5124 8.50019
      vertex 20.4499 1.29445 8.45387
      vertex 70.4499 1.29445 8.45387
    endloop
  endfacet
  facet normal 0 -0.207911 0.978148
    outer loop
      vertex 70.4499 1.29445 8.45387
      vertex 20.4499 1.29445 8.45387
      vertex 90 0 8.17872
    endloop
  endfacet
  facet normal -3.26666e-06 -0.20789 0.978152
    outer loop
      vertex 0 0 8.17872
      vertex 17.2547 2.50937 8.71211
      vertex 17.2178 2.53521 8.7176
    endloop
  endfacet
  facet normal -6.40942e-09 -0.207912 0.978148
    outer loop
      vertex 0 0 8.17872
      vertex 16.4106 4.1153 9.05346
      vertex 0 10 10.3043
    endloop
  endfacet
  facet normal 1.05134e-07 -0.207912 0.978148
    outer loop
      vertex 16.4106 4.1153 9.05346
      vertex 0 0 8.17872
      vertex 17.2178 2.53521 8.7176
    endloop
  endfacet
  facet normal 0 -0.207911 0.978148
    outer loop
      vertex 20.4499 1.29445 8.45387
      vertex 0 0 8.17872
      vertex 90 0 8.17872
    endloop
  endfacet
  facet normal 1.13992e-07 -0.207913 0.978147
    outer loop
      vertex 18.6773 1.5124 8.50019
      vertex 0 0 8.17872
      vertex 20.4499 1.29445 8.45387
    endloop
  endfacet
  facet normal 2.80198e-08 -0.207912 0.978148
    outer loop
      vertex 17.2547 2.50937 8.71211
      vertex 0 0 8.17872
      vertex 18.6773 1.5124 8.50019
    endloop
  endfacet
  facet normal -0.969298 -0.238911 -0.0581581
    outer loop
      vertex 23.6855 5 9.24151
      vertex 23.5418 6.85889 4
      vertex 24 5 4
    endloop
  endfacet
  facet normal -0.969299 -0.23891 -0.0581579
    outer loop
      vertex 23.5418 6.85889 4
      vertex 23.6855 5 9.24151
      vertex 23.2575 6.65098 9.59243
    endloop
  endfacet
  facet normal -0.747244 -0.662 -0.0581581
    outer loop
      vertex 23.2081 6.74262 9.61191
      vertex 22.2723 8.29193 4
      vertex 23.5418 6.85889 4
    endloop
  endfacet
  facet normal -0.747244 -0.662 -0.058158
    outer loop
      vertex 22.2723 8.29193 4
      vertex 23.2081 6.74262 9.61191
      vertex 22.0719 8.00161 9.87952
    endloop
  endfacet
  facet normal 0 0 1
    outer loop
      vertex 21.46 5 4
      vertex 24 5 4
      vertex 23.5418 6.85889 4
    endloop
  endfacet
  facet normal 0 0 1
    outer loop
      vertex 20.5064 6.31246 4
      vertex 23.5418 6.85889 4
      vertex 22.2723 8.29193 4
    endloop
  endfacet
  facet normal 0 0 1
    outer loop
      vertex 24 5 4
      vertex 21.46 5 4
      vertex 23.5418 3.14111 4
    endloop
  endfacet
  facet normal -0 0 1
    outer loop
      vertex 21.4047 4.92392 4
      vertex 23.5418 3.14111 4
      vertex 21.46 5 4
    endloop
  endfacet
  facet normal 0 0 1
    outer loop
      vertex 23.5418 6.85889 4
      vertex 20.5064 6.31246 4
      vertex 21.46 5 4
    endloop
  endfacet
  facet normal 0 0 1
    outer loop
      vertex 20.4512 6.38854 4
      vertex 22.2723 8.29193 4
      vertex 20.4821 8.97083 4
    endloop
  endfacet
  facet normal 0 0 1
    outer loop
      vertex 22.2723 8.29193 4
      vertex 20.4512 6.38854 4
      vertex 20.5064 6.31246 4
    endloop
  endfacet
  facet normal -0 0 1
    outer loop
      vertex 18.5816 8.74006 4
      vertex 20.4512 6.38854 4
      vertex 20.4821 8.97083 4
    endloop
  endfacet
  facet normal 0 0 1
    outer loop
      vertex 20.4512 6.38854 4
      vertex 18.5816 8.74006 4
      vertex 18.9083 5.88723 4
    endloop
  endfacet
  facet normal 0 0 1
    outer loop
      vertex 18.9083 5.88723 4
      vertex 17.006 7.65249 4
      vertex 18.8188 5.85817 4
    endloop
  endfacet
  facet normal -0 0 1
    outer loop
      vertex 17.006 7.65249 4
      vertex 18.9083 5.88723 4
      vertex 18.5816 8.74006 4
    endloop
  endfacet
  facet normal -0 0 1
    outer loop
      vertex 20.4512 3.61146 4
      vertex 23.5418 3.14111 4
      vertex 21.4047 4.92392 4
    endloop
  endfacet
  facet normal 0 0 1
    outer loop
      vertex 23.5418 3.14111 4
      vertex 20.4512 3.61146 4
      vertex 22.2723 1.70806 4
    endloop
  endfacet
  facet normal 0 0 1
    outer loop
      vertex 22.2723 1.70806 4
      vertex 20.4512 3.61146 4
      vertex 20.4821 1.02916 4
    endloop
  endfacet
  facet normal 0 0 1
    outer loop
      vertex 18.5816 1.25993 4
      vertex 20.4512 3.61146 4
      vertex 18.9083 4.11277 4
    endloop
  endfacet
  facet normal 0 0 1
    outer loop
      vertex 17.006 2.34751 4
      vertex 18.9083 4.11277 4
      vertex 18.8188 4.14183 4
    endloop
  endfacet
  facet normal 0 0 1
    outer loop
      vertex 20.4512 3.61146 4
      vertex 18.5816 1.25993 4
      vertex 20.4821 1.02916 4
    endloop
  endfacet
  facet normal -0 0 1
    outer loop
      vertex 16.1162 5.95726 4
      vertex 18.8188 5.85817 4
      vertex 17.006 7.65249 4
    endloop
  endfacet
  facet normal 0 0 1
    outer loop
      vertex 18.8188 5.85817 4
      vertex 16.1162 5.95726 4
      vertex 18.8188 4.14183 4
    endloop
  endfacet
  facet normal 0 0 1
    outer loop
      vertex 18.9083 4.11277 4
      vertex 17.006 2.34751 4
      vertex 18.5816 1.25993 4
    endloop
  endfacet
  facet normal 0 0 1
    outer loop
      vertex 16.1162 4.04274 4
      vertex 18.8188 4.14183 4
      vertex 16.1162 5.95726 4
    endloop
  endfacet
  facet normal 0 0 1
    outer loop
      vertex 18.8188 4.14183 4
      vertex 16.1162 4.04274 4
      vertex 17.006 2.34751 4
    endloop
  endfacet
  facet normal 0.120332 0.991029 -0.0581579
    outer loop
      vertex 18.5816 1.25993 4
      vertex 20.4499 1.29445 8.45387
      vertex 20.4821 1.02916 4
    endloop
  endfacet
  facet normal 0.120332 0.991029 -0.0581579
    outer loop
      vertex 20.4499 1.29445 8.45387
      vertex 18.5816 1.25993 4
      vertex 18.6773 1.5124 8.50019
    endloop
  endfacet
  facet normal 0.567103 -0.821591 -0.0581579
    outer loop
      vertex 18.5816 8.74006 4
      vertex 17.3102 7.45453 9.76323
      vertex 17.006 7.65249 4
    endloop
  endfacet
  facet normal 0.567103 -0.821591 -0.0581577
    outer loop
      vertex 17.3102 7.45453 9.76323
      vertex 18.5816 8.74006 4
      vertex 18.7085 8.4054 9.96535
    endloop
  endfacet
  facet normal -0.354005 0.933434 -0.058158
    outer loop
      vertex 22.2723 1.70806 4
      vertex 20.4898 1.30977 8.45712
      vertex 22.1158 1.93471 8.58996
    endloop
  endfacet
  facet normal -0.354005 0.933434 -0.058158
    outer loop
      vertex 20.4898 1.30977 8.45712
      vertex 22.2723 1.70806 4
      vertex 20.4821 1.02916 4
    endloop
  endfacet
  facet normal 0.567103 -0.821591 -0.0581579
    outer loop
      vertex 17.3102 7.45453 9.76323
      vertex 17.2645 7.42345 9.75663
      vertex 17.006 7.65249 4
    endloop
  endfacet
  facet normal -0.354009 0.933432 -0.0581578
    outer loop
      vertex 20.4898 1.30977 8.45712
      vertex 20.4821 1.02916 4
      vertex 20.4499 1.29445 8.45387
    endloop
  endfacet
  facet normal -0.354005 -0.933434 -0.0581579
    outer loop
      vertex 20.4821 8.97083 4
      vertex 22.0719 8.00161 9.87952
      vertex 20.4925 8.59277 10.0052
    endloop
  endfacet
  facet normal -0.354005 -0.933434 -0.058158
    outer loop
      vertex 22.0719 8.00161 9.87952
      vertex 20.4821 8.97083 4
      vertex 22.2723 8.29193 4
    endloop
  endfacet
  facet normal -0.969298 0.238911 -0.0581581
    outer loop
      vertex 24 5 4
      vertex 23.2935 3.32272 8.88499
      vertex 23.6855 5 9.24151
    endloop
  endfacet
  facet normal -0.969298 0.23891 -0.0581581
    outer loop
      vertex 23.2935 3.32272 8.88499
      vertex 24 5 4
      vertex 23.5418 3.14111 4
    endloop
  endfacet
  facet normal 0.883957 -0.463937 -0.0581579
    outer loop
      vertex 16.4325 5.87932 9.42841
      vertex 17.006 7.65249 4
      vertex 17.2645 7.42345 9.75663
    endloop
  endfacet
  facet normal 0.883957 -0.463937 -0.0581579
    outer loop
      vertex 17.006 7.65249 4
      vertex 16.4325 5.87932 9.42841
      vertex 16.1162 5.95726 4
    endloop
  endfacet
  facet normal 0.998307 2.89195e-07 -0.0581579
    outer loop
      vertex 16.4106 4.1153 9.05346
      vertex 16.1162 5.95726 4
      vertex 16.4325 5.87932 9.42841
    endloop
  endfacet
  facet normal 0.998307 0 -0.058158
    outer loop
      vertex 16.1162 5.95726 4
      vertex 16.4106 4.1153 9.05346
      vertex 16.1162 4.04274 4
    endloop
  endfacet
  facet normal 0.883957 0.463936 -0.058158
    outer loop
      vertex 17.2178 2.53521 8.7176
      vertex 16.1162 4.04274 4
      vertex 16.4106 4.1153 9.05346
    endloop
  endfacet
  facet normal 0.883957 0.463937 -0.0581579
    outer loop
      vertex 16.1162 4.04274 4
      vertex 17.2178 2.53521 8.7176
      vertex 17.006 2.34751 4
    endloop
  endfacet
  facet normal -0.747244 0.662 -0.0581582
    outer loop
      vertex 23.5418 3.14111 4
      vertex 22.1158 1.93471 8.58996
      vertex 23.2523 3.24196 8.86782
    endloop
  endfacet
  facet normal -0.747244 0.662 -0.0581581
    outer loop
      vertex 22.1158 1.93471 8.58996
      vertex 23.5418 3.14111 4
      vertex 22.2723 1.70806 4
    endloop
  endfacet
  facet normal -0.747237 -0.662007 -0.0581578
    outer loop
      vertex 23.5418 6.85889 4
      vertex 23.2441 6.70265 9.60342
      vertex 23.2081 6.74262 9.61191
    endloop
  endfacet
  facet normal 0.567103 0.821591 -0.0581579
    outer loop
      vertex 17.006 2.34751 4
      vertex 18.6773 1.5124 8.50019
      vertex 18.5816 1.25993 4
    endloop
  endfacet
  facet normal 0.567103 0.821591 -0.058158
    outer loop
      vertex 18.6773 1.5124 8.50019
      vertex 17.006 2.34751 4
      vertex 17.2547 2.50937 8.71211
    endloop
  endfacet
  facet normal 0.567092 0.821598 -0.0581577
    outer loop
      vertex 17.2178 2.53521 8.7176
      vertex 17.2547 2.50937 8.71211
      vertex 17.006 2.34751 4
    endloop
  endfacet
  facet normal -0.747239 0.662005 -0.058158
    outer loop
      vertex 23.2828 3.27705 8.87528
      vertex 23.5418 3.14111 4
      vertex 23.2523 3.24196 8.86782
    endloop
  endfacet
  facet normal -0.969297 0.238916 -0.0581583
    outer loop
      vertex 23.2935 3.32272 8.88499
      vertex 23.5418 3.14111 4
      vertex 23.2828 3.27705 8.87528
    endloop
  endfacet
  facet normal -0.354007 -0.933433 -0.0581579
    outer loop
      vertex 20.4821 8.97083 4
      vertex 20.4925 8.59277 10.0052
      vertex 20.4387 8.6129 10.0095
    endloop
  endfacet
  facet normal -0.969298 -0.238914 -0.058158
    outer loop
      vertex 23.5418 6.85889 4
      vertex 23.2575 6.65098 9.59243
      vertex 23.2441 6.70265 9.60342
    endloop
  endfacet
  facet normal 0.120332 -0.991029 -0.0581578
    outer loop
      vertex 20.4821 8.97083 4
      vertex 18.7085 8.4054 9.96535
      vertex 18.5816 8.74006 4
    endloop
  endfacet
  facet normal 0.120332 -0.991029 -0.0581578
    outer loop
      vertex 18.7085 8.4054 9.96535
      vertex 20.4821 8.97083 4
      vertex 20.4387 8.6129 10.0095
    endloop
  endfacet
  facet normal -0.80899 -0.587767 -0.00808968
    outer loop
      vertex 21.5 5 0
      vertex 20.5064 6.31246 4
      vertex 20.4635 6.42658 0
    endloop
  endfacet
  facet normal -0.808991 -0.587766 -0.00809009
    outer loop
      vertex 20.5064 6.31246 4
      vertex 21.5 5 0
      vertex 21.46 5 4
    endloop
  endfacet
  facet normal 0.309006 0.951026 -0.00808985
    outer loop
      vertex 18.8188 4.14183 4
      vertex 18.9083 4.11277 4
      vertex 18.7865 4.11832 0
    endloop
  endfacet
  facet normal 0.309007 -0.951025 -0.00808988
    outer loop
      vertex 20.4635 6.42658 0
      vertex 18.9083 5.88723 4
      vertex 18.7865 5.88168 0
    endloop
  endfacet
  facet normal 0.309007 -0.951025 -0.00808994
    outer loop
      vertex 18.9083 5.88723 4
      vertex 20.4635 6.42658 0
      vertex 20.4512 6.38854 4
    endloop
  endfacet
  facet normal 0.309007 0.951025 -0.00809
    outer loop
      vertex 20.4635 3.57341 0
      vertex 18.9083 4.11277 4
      vertex 20.4512 3.61146 4
    endloop
  endfacet
  facet normal 0.309007 0.951025 -0.00808988
    outer loop
      vertex 18.9083 4.11277 4
      vertex 20.4635 3.57341 0
      vertex 18.7865 4.11832 0
    endloop
  endfacet
  facet normal 0.309006 -0.951026 -0.00808985
    outer loop
      vertex 18.9083 5.88723 4
      vertex 18.8188 5.85817 4
      vertex 18.7865 5.88168 0
    endloop
  endfacet
  facet normal -0.80899 -0.587767 -0.00808967
    outer loop
      vertex 20.4635 6.42658 0
      vertex 20.5064 6.31246 4
      vertex 20.4512 6.38854 4
    endloop
  endfacet
  facet normal -0.80899 0.587767 -0.0080897
    outer loop
      vertex 21.5 5 0
      vertex 20.4512 3.61146 4
      vertex 21.4047 4.92392 4
    endloop
  endfacet
  facet normal -0.80899 0.587767 -0.0080897
    outer loop
      vertex 20.4512 3.61146 4
      vertex 21.5 5 0
      vertex 20.4635 3.57341 0
    endloop
  endfacet
  facet normal -0.809 0.587753 -0.00809018
    outer loop
      vertex 21.46 5 4
      vertex 21.5 5 0
      vertex 21.4047 4.92392 4
    endloop
  endfacet
  facet normal 0.999967 0 -0.00808975
    outer loop
      vertex 18.8188 4.14183 4
      vertex 18.7865 5.88168 0
      vertex 18.8188 5.85817 4
    endloop
  endfacet
  facet normal 0.999967 0 -0.00808975
    outer loop
      vertex 18.7865 5.88168 0
      vertex 18.8188 4.14183 4
      vertex 18.7865 4.11832 0
    endloop
  endfacet
  facet normal -0.969298 -0.238911 -0.0581581
    outer loop
      vertex 73.6855 5 9.24151
      vertex 73.5418 6.85889 4
      vertex 74 5 4
    endloop
  endfacet
  facet normal -0.969298 -0.238911 -0.0581583
    outer loop
      vertex 73.5418 6.85889 4
      vertex 73.6855 5 9.24151
      vertex 73.2575 6.65098 9.59243
    endloop
  endfacet
  facet normal -0.747245 -0.661999 -0.0581581
    outer loop
      vertex 73.2081 6.74262 9.61191
      vertex 72.2723 8.29193 4
      vertex 73.5418 6.85889 4
    endloop
  endfacet
  facet normal -0.747244 -0.662 -0.0581585
    outer loop
      vertex 72.2723 8.29193 4
      vertex 73.2081 6.74262 9.61191
      vertex 72.0719 8.00161 9.87952
    endloop
  endfacet
  facet normal 0 0 1
    outer loop
      vertex 71.46 5 4
      vertex 74 5 4
      vertex 73.5418 6.85889 4
    endloop
  endfacet
  facet normal 0 0 1
    outer loop
      vertex 70.5064 6.31246 4
      vertex 73.5418 6.85889 4
      vertex 72.2723 8.29193 4
    endloop
  endfacet
  facet normal 0 0 1
    outer loop
      vertex 74 5 4
      vertex 71.46 5 4
      vertex 73.5418 3.14111 4
    endloop
  endfacet
  facet normal -0 0 1
    outer loop
      vertex 71.4047 4.92392 4
      vertex 73.5418 3.14111 4
      vertex 71.46 5 4
    endloop
  endfacet
  facet normal 0 0 1
    outer loop
      vertex 73.5418 6.85889 4
      vertex 70.5064 6.31246 4
      vertex 71.46 5 4
    endloop
  endfacet
  facet normal 0 0 1
    outer loop
      vertex 70.4512 6.38854 4
      vertex 72.2723 8.29193 4
      vertex 70.4821 8.97083 4
    endloop
  endfacet
  facet normal 0 0 1
    outer loop
      vertex 72.2723 8.29193 4
      vertex 70.4512 6.38854 4
      vertex 70.5064 6.31246 4
    endloop
  endfacet
  facet normal -0 0 1
    outer loop
      vertex 68.5816 8.74006 4
      vertex 70.4512 6.38854 4
      vertex 70.4821 8.97083 4
    endloop
  endfacet
  facet normal 0 0 1
    outer loop
      vertex 70.4512 6.38854 4
      vertex 68.5816 8.74006 4
      vertex 68.9083 5.88723 4
    endloop
  endfacet
  facet normal 0 0 1
    outer loop
      vertex 68.9083 5.88723 4
      vertex 67.006 7.65249 4
      vertex 68.8188 5.85817 4
    endloop
  endfacet
  facet normal -0 0 1
    outer loop
      vertex 67.006 7.65249 4
      vertex 68.9083 5.88723 4
      vertex 68.5816 8.74006 4
    endloop
  endfacet
  facet normal -0 0 1
    outer loop
      vertex 70.4512 3.61146 4
      vertex 73.5418 3.14111 4
      vertex 71.4047 4.92392 4
    endloop
  endfacet
  facet normal 0 0 1
    outer loop
      vertex 73.5418 3.14111 4
      vertex 70.4512 3.61146 4
      vertex 72.2723 1.70806 4
    endloop
  endfacet
  facet normal 0 0 1
    outer loop
      vertex 72.2723 1.70806 4
      vertex 70.4512 3.61146 4
      vertex 70.4821 1.02916 4
    endloop
  endfacet
  facet normal 0 0 1
    outer loop
      vertex 68.5816 1.25993 4
      vertex 70.4512 3.61146 4
      vertex 68.9083 4.11277 4
    endloop
  endfacet
  facet normal 0 0 1
    outer loop
      vertex 67.006 2.34751 4
      vertex 68.9083 4.11277 4
      vertex 68.8188 4.14183 4
    endloop
  endfacet
  facet normal 0 0 1
    outer loop
      vertex 70.4512 3.61146 4
      vertex 68.5816 1.25993 4
      vertex 70.4821 1.02916 4
    endloop
  endfacet
  facet normal -0 0 1
    outer loop
      vertex 66.1162 5.95726 4
      vertex 68.8188 5.85817 4
      vertex 67.006 7.65249 4
    endloop
  endfacet
  facet normal 0 0 1
    outer loop
      vertex 68.8188 5.85817 4
      vertex 66.1162 5.95726 4
      vertex 68.8188 4.14183 4
    endloop
  endfacet
  facet normal 0 0 1
    outer loop
      vertex 68.9083 4.11277 4
      vertex 67.006 2.34751 4
      vertex 68.5816 1.25993 4
    endloop
  endfacet
  facet normal 0 0 1
    outer loop
      vertex 66.1162 4.04274 4
      vertex 68.8188 4.14183 4
      vertex 66.1162 5.95726 4
    endloop
  endfacet
  facet normal 0 0 1
    outer loop
      vertex 68.8188 4.14183 4
      vertex 66.1162 4.04274 4
      vertex 67.006 2.34751 4
    endloop
  endfacet
  facet normal 0.120332 0.991029 -0.0581579
    outer loop
      vertex 68.5816 1.25993 4
      vertex 70.4499 1.29445 8.45387
      vertex 70.4821 1.02916 4
    endloop
  endfacet
  facet normal 0.120333 0.991029 -0.058158
    outer loop
      vertex 70.4499 1.29445 8.45387
      vertex 68.5816 1.25993 4
      vertex 68.6773 1.5124 8.50019
    endloop
  endfacet
  facet normal 0.567103 -0.821591 -0.0581575
    outer loop
      vertex 68.5816 8.74006 4
      vertex 67.3102 7.45453 9.76323
      vertex 67.006 7.65249 4
    endloop
  endfacet
  facet normal 0.567102 -0.821592 -0.0581581
    outer loop
      vertex 67.3102 7.45453 9.76323
      vertex 68.5816 8.74006 4
      vertex 68.7085 8.4054 9.96535
    endloop
  endfacet
  facet normal -0.354005 0.933433 -0.0581583
    outer loop
      vertex 72.2723 1.70806 4
      vertex 70.4898 1.30977 8.45712
      vertex 72.1158 1.93471 8.58996
    endloop
  endfacet
  facet normal -0.354004 0.933434 -0.0581578
    outer loop
      vertex 70.4898 1.30977 8.45712
      vertex 72.2723 1.70806 4
      vertex 70.4821 1.02916 4
    endloop
  endfacet
  facet normal 0.567103 -0.821591 -0.0581575
    outer loop
      vertex 67.3102 7.45453 9.76323
      vertex 67.2645 7.42345 9.75663
      vertex 67.006 7.65249 4
    endloop
  endfacet
  facet normal -0.353995 0.933437 -0.0581581
    outer loop
      vertex 70.4898 1.30977 8.45712
      vertex 70.4821 1.02916 4
      vertex 70.4499 1.29445 8.45387
    endloop
  endfacet
  facet normal -0.354004 -0.933434 -0.0581582
    outer loop
      vertex 70.4821 8.97083 4
      vertex 72.0719 8.00161 9.87952
      vertex 70.4925 8.59277 10.0052
    endloop
  endfacet
  facet normal -0.354004 -0.933434 -0.0581582
    outer loop
      vertex 72.0719 8.00161 9.87952
      vertex 70.4821 8.97083 4
      vertex 72.2723 8.29193 4
    endloop
  endfacet
  facet normal -0.969298 0.238911 -0.0581581
    outer loop
      vertex 74 5 4
      vertex 73.2935 3.32272 8.88499
      vertex 73.6855 5 9.24151
    endloop
  endfacet
  facet normal -0.969298 0.23891 -0.0581581
    outer loop
      vertex 73.2935 3.32272 8.88499
      vertex 74 5 4
      vertex 73.5418 3.14111 4
    endloop
  endfacet
  facet normal 0.883958 -0.463936 -0.0581573
    outer loop
      vertex 66.4325 5.87932 9.42841
      vertex 67.006 7.65249 4
      vertex 67.2645 7.42345 9.75663
    endloop
  endfacet
  facet normal 0.883957 -0.463937 -0.0581576
    outer loop
      vertex 67.006 7.65249 4
      vertex 66.4325 5.87932 9.42841
      vertex 66.1162 5.95726 4
    endloop
  endfacet
  facet normal 0.998307 2.14864e-07 -0.0581576
    outer loop
      vertex 66.4106 4.1153 9.05346
      vertex 66.1162 5.95726 4
      vertex 66.4325 5.87932 9.42841
    endloop
  endfacet
  facet normal 0.998307 0 -0.0581576
    outer loop
      vertex 66.1162 5.95726 4
      vertex 66.4106 4.1153 9.05346
      vertex 66.1162 4.04274 4
    endloop
  endfacet
  facet normal 0.883957 0.463936 -0.0581577
    outer loop
      vertex 67.2178 2.53521 8.7176
      vertex 66.1162 4.04274 4
      vertex 66.4106 4.1153 9.05346
    endloop
  endfacet
  facet normal 0.883957 0.463937 -0.0581575
    outer loop
      vertex 66.1162 4.04274 4
      vertex 67.2178 2.53521 8.7176
      vertex 67.006 2.34751 4
    endloop
  endfacet
  facet normal -0.747243 0.662001 -0.0581576
    outer loop
      vertex 73.5418 3.14111 4
      vertex 72.1158 1.93471 8.58996
      vertex 73.2523 3.24196 8.86782
    endloop
  endfacet
  facet normal -0.747245 0.661999 -0.0581587
    outer loop
      vertex 72.1158 1.93471 8.58996
      vertex 73.5418 3.14111 4
      vertex 72.2723 1.70806 4
    endloop
  endfacet
  facet normal -0.747273 -0.661968 -0.0581591
    outer loop
      vertex 73.5418 6.85889 4
      vertex 73.2441 6.70265 9.60342
      vertex 73.2081 6.74262 9.61191
    endloop
  endfacet
  facet normal 0.567103 0.821591 -0.0581581
    outer loop
      vertex 67.006 2.34751 4
      vertex 68.6773 1.5124 8.50019
      vertex 68.5816 1.25993 4
    endloop
  endfacet
  facet normal 0.567102 0.821592 -0.0581573
    outer loop
      vertex 68.6773 1.5124 8.50019
      vertex 67.006 2.34751 4
      vertex 67.2547 2.50937 8.71211
    endloop
  endfacet
  facet normal 0.567132 0.821571 -0.0581581
    outer loop
      vertex 67.2178 2.53521 8.7176
      vertex 67.2547 2.50937 8.71211
      vertex 67.006 2.34751 4
    endloop
  endfacet
  facet normal -0.74726 0.661982 -0.0581582
    outer loop
      vertex 73.2828 3.27705 8.87528
      vertex 73.5418 3.14111 4
      vertex 73.2523 3.24196 8.86782
    endloop
  endfacet
  facet normal -0.969306 0.238878 -0.0581573
    outer loop
      vertex 73.2935 3.32272 8.88499
      vertex 73.5418 3.14111 4
      vertex 73.2828 3.27705 8.87528
    endloop
  endfacet
  facet normal -0.354018 -0.933429 -0.0581578
    outer loop
      vertex 70.4821 8.97083 4
      vertex 70.4925 8.59277 10.0052
      vertex 70.4387 8.6129 10.0095
    endloop
  endfacet
  facet normal -0.969289 -0.238947 -0.0581592
    outer loop
      vertex 73.5418 6.85889 4
      vertex 73.2575 6.65098 9.59243
      vertex 73.2441 6.70265 9.60342
    endloop
  endfacet
  facet normal 0.120332 -0.991029 -0.0581579
    outer loop
      vertex 70.4821 8.97083 4
      vertex 68.7085 8.4054 9.96535
      vertex 68.5816 8.74006 4
    endloop
  endfacet
  facet normal 0.120333 -0.991029 -0.0581578
    outer loop
      vertex 68.7085 8.4054 9.96535
      vertex 70.4821 8.97083 4
      vertex 70.4387 8.6129 10.0095
    endloop
  endfacet
  facet normal -0.80899 -0.587767 -0.00809045
    outer loop
      vertex 71.5 5 0
      vertex 70.5064 6.31246 4
      vertex 70.4635 6.42658 0
    endloop
  endfacet
  facet normal -0.808989 -0.587767 -0.00809008
    outer loop
      vertex 70.5064 6.31246 4
      vertex 71.5 5 0
      vertex 71.46 5 4
    endloop
  endfacet
  facet normal 0.308994 0.951029 -0.00808949
    outer loop
      vertex 68.8188 4.14183 4
      vertex 68.9083 4.11277 4
      vertex 68.7865 4.11832 0
    endloop
  endfacet
  facet normal 0.309007 -0.951025 -0.00808989
    outer loop
      vertex 70.4635 6.42658 0
      vertex 68.9083 5.88723 4
      vertex 68.7865 5.88168 0
    endloop
  endfacet
  facet normal 0.309007 -0.951025 -0.00808994
    outer loop
      vertex 68.9083 5.88723 4
      vertex 70.4635 6.42658 0
      vertex 70.4512 6.38854 4
    endloop
  endfacet
  facet normal 0.309007 0.951025 -0.00809
    outer loop
      vertex 70.4635 3.57341 0
      vertex 68.9083 4.11277 4
      vertex 70.4512 3.61146 4
    endloop
  endfacet
  facet normal 0.309007 0.951025 -0.00808989
    outer loop
      vertex 68.9083 4.11277 4
      vertex 70.4635 3.57341 0
      vertex 68.7865 4.11832 0
    endloop
  endfacet
  facet normal 0.999967 0 -0.0080888
    outer loop
      vertex 68.8188 4.14183 4
      vertex 68.7865 5.88168 0
      vertex 68.8188 5.85817 4
    endloop
  endfacet
  facet normal 0.999967 0 -0.0080888
    outer loop
      vertex 68.7865 5.88168 0
      vertex 68.8188 4.14183 4
      vertex 68.7865 4.11832 0
    endloop
  endfacet
  facet normal 0.308994 -0.951029 -0.00808949
    outer loop
      vertex 68.9083 5.88723 4
      vertex 68.8188 5.85817 4
      vertex 68.7865 5.88168 0
    endloop
  endfacet
  facet normal -0.809009 -0.58774 -0.00808947
    outer loop
      vertex 70.4635 6.42658 0
      vertex 70.5064 6.31246 4
      vertex 70.4512 6.38854 4
    endloop
  endfacet
  facet normal -0.80899 0.587767 -0.00808929
    outer loop
      vertex 71.5 5 0
      vertex 70.4512 3.61146 4
      vertex 71.4047 4.92392 4
    endloop
  endfacet
  facet normal -0.80899 0.587767 -0.0080897
    outer loop
      vertex 70.4512 3.61146 4
      vertex 71.5 5 0
      vertex 70.4635 3.57341 0
    endloop
  endfacet
  facet normal -0.809009 0.58774 -0.00809028
    outer loop
      vertex 71.46 5 4
      vertex 71.5 5 0
      vertex 71.4047 4.92392 4
    endloop
  endfacet
endsolid OpenSCAD_Model
